<?xml version="1.0" standalone="no"?>
<!DOCTYPE svg PUBLIC "-//W3C//DTD SVG 20010904//EN" "http://www.w3.org/TR/2001/REC-SVG-20010904/DTD/svg10.dtd">
<svg version="1.0" xmlns="http://www.w3.org/2000/svg" width="4490.000000pt" height="1072.000000pt" viewBox="0 0 4490.000000 1072.000000" preserveAspectRatio="xMidYMid meet">
  <defs>
    <style>.logo-gray{fill:#716d7c;}</style>
    <style>.logo-red{fill:#C7000A;}</style>
  </defs>

  <g transform="translate(0.000000,1072.000000) scale(0.100000,-0.100000)" stroke="none">
    <g class="logo-gray">
      <path d="M24455 10710 c-2834 -61 -5863 -520 -8906 -1350 -2900 -791 -5695 -1890 -7841 -3083 l-238 -132 0 -182 0 -182 138 78 c957 542 2237 1139 3502 1633 3918 1532 8328 2497 12335 2698 1012 50 2131 52 3070 5 3705 -189 6868 -1080 9415 -2653 248 -153 575 -370 798 -530 l182 -130 0 181 0 182 -178 126 c-2760 1968 -6249 3090 -10292 3309 -553 30 -1397 43 -1985 30z"/>
      <path d="M23050 8058 c-107 -61 -197 -113 -199 -115 -2 -1 21 -51 51 -110 169 -328 254 -661 265 -1043 11 -407 -64 -760 -243 -1129 -41 -85 -71 -158 -67 -161 30 -26 386 -221 396 -217 16 6 134 243 186 375 80 200 143 440 178 677 22 151 25 599 4 745 -32 231 -87 451 -167 670 -39 104 -190 420 -202 420 -4 0 -95 -50 -202 -112z"/>
      <path d="M26892 8028 c-415 -831 -415 -1785 -1 -2611 84 -167 48 -164 282 -29 l202 116 -71 143 c-111 223 -190 478 -231 743 -24 160 -24 510 0 670 41 266 115 502 231 737 l72 144 -199 114 c-109 63 -202 115 -206 115 -5 0 -40 -64 -79 -142z"/>
      <path d="M22326 7641 c-109 -64 -198 -119 -197 -123 1 -4 24 -54 50 -110 109 -233 152 -426 152 -689 0 -266 -51 -481 -170 -717 l-39 -78 193 -112 c106 -61 198 -113 205 -114 20 -5 124 212 174 362 180 541 139 1096 -119 1611 -25 49 -46 89 -48 88 -1 -1 -92 -53 -201 -118z"/>
      <path d="M27630 7636 c-103 -212 -173 -450 -201 -690 -15 -127 -6 -441 15 -561 23 -125 60 -268 96 -367 40 -108 147 -331 157 -325 94 49 403 232 400 236 -36 65 -103 217 -126 288 -63 187 -75 266 -75 503 0 185 3 229 22 316 31 143 65 242 128 373 30 63 53 115 52 116 -2 1 -94 54 -205 118 l-202 116 -61 -123z"/>
      <path d="M21630 7239 c-96 -56 -185 -107 -197 -115 l-22 -14 30 -65 c94 -207 91 -464 -8 -658 -13 -27 -23 -50 -21 -52 3 -3 359 -210 389 -225 14 -8 23 2 57 73 135 277 159 609 67 912 -26 85 -99 245 -112 245 -4 0 -87 -46 -183 -101z"/>
      <path d="M28361 7259 c-77 -170 -110 -303 -118 -489 -8 -206 38 -423 129 -604 l33 -66 198 114 c109 62 200 116 202 118 3 3 -8 34 -24 70 -50 110 -65 181 -65 318 -1 139 13 209 66 323 17 37 29 69 27 70 -13 10 -377 217 -392 223 -14 5 -24 -9 -56 -77z"/>
    </g>
    <g class="logo-red">
      <!--T-->
      <path d="M0 7260 l0 -380 1008 -2 1007 -3 3 -3398 2 -3397 430 0 430 0 2 3398 3 3397 1072 3 1073 2 0 380 0 380 -2515 0 -2515 0 0 -380z"/>
      <!--a-->
      <path d="M6195 5010 c-38 -10 -88 -26 -109 -35 -71 -30 -1650 -946 -1706 -989 -103 -80 -191 -206 -236 -338 -42 -124 -45 -215 -41 -1198 3 -825 5 -932 20 -987 47 -176 157 -335 297 -431 51 -34 1564 -908 1639 -947 173 -87 419 -94 600 -16 36 15 305 166 596 335 l530 306 3 -315 2 -315 430 0 430 0 -2 1738 -3 1737 -27 80 c-49 144 -150 284 -267 369 -47 34 -1564 912 -1659 960 -131 66 -347 86 -497 46z m865 -1254 c333 -192 619 -359 635 -371 17 -12 44 -47 60 -76 l30 -54 0 -730 0 -730 -22 -46 c-13 -25 -35 -57 -50 -71 -29 -27 -1166 -687 -1242 -721 -33 -14 -60 -18 -110 -15 l-66 4 -605 348 c-645 371 -682 396 -708 483 -9 30 -12 226 -12 754 l0 714 24 50 c13 28 36 62 52 76 28 26 1156 682 1239 721 29 14 57 18 105 16 l65 -3 605 -349z"/>
      <!--s-->
      <path d="M11364 5015 c-27 -7 -72 -22 -100 -33 -74 -28 -1666 -950 -1732 -1002 -77 -62 -146 -150 -192 -245 -49 -100 -71 -193 -73 -309 l-2 -90 1584 -916 c871 -503 1589 -923 1595 -932 7 -11 7 -26 1 -44 -8 -22 -85 -70 -414 -260 -223 -129 -420 -237 -438 -240 -19 -4 -58 -4 -87 -2 -48 4 -109 36 -657 352 -332 192 -621 365 -643 385 -68 64 -76 92 -76 289 l0 172 -436 0 -436 0 5 -313 c4 -285 6 -318 26 -387 39 -130 95 -225 191 -320 85 -85 86 -86 865 -535 429 -247 808 -465 842 -483 188 -100 399 -116 596 -45 66 23 1570 881 1708 974 197 133 327 384 317 614 l-3 69 -1579 912 c-869 501 -1585 920 -1593 930 -19 26 -16 48 10 71 24 22 736 435 801 464 47 21 118 24 167 7 59 -20 1212 -690 1253 -727 68 -64 79 -103 84 -293 l4 -168 429 0 429 0 0 278 c0 152 -5 306 -11 341 -26 161 -92 286 -213 406 -80 78 -101 91 -894 548 -447 257 -837 479 -868 493 -31 14 -84 31 -118 39 -77 18 -274 18 -342 0z"/>
      <!--a-->
      <path d="M16510 5011 c-36 -10 -85 -27 -110 -38 -57 -25 -1595 -913 -1671 -964 -88 -59 -174 -160 -225 -264 -84 -172 -79 -91 -79 -1230 l0 -1010 33 -94 c18 -52 49 -122 69 -155 49 -81 150 -186 226 -234 184 -118 1631 -943 1694 -965 105 -38 226 -52 333 -38 163 21 166 23 825 404 l490 283 5 -310 5 -311 433 -3 432 -2 0 1692 c-1 1375 -3 1707 -14 1769 -33 186 -141 358 -290 463 -74 53 -1611 940 -1681 971 -129 57 -339 73 -475 36z m260 -912 c56 -20 1223 -698 1259 -732 18 -18 42 -50 52 -72 18 -38 19 -80 19 -771 l0 -730 -25 -51 c-15 -28 -40 -62 -58 -76 -39 -29 -1189 -695 -1234 -713 -42 -18 -134 -18 -176 0 -43 18 -1194 682 -1233 712 -18 13 -44 47 -58 76 l-26 52 0 730 c0 817 -3 772 71 843 34 32 1199 711 1255 731 39 14 114 14 154 1z"/>
      <!--k-->
      <path d="M19640 3860 l0 -3780 433 2 432 3 3 1028 2 1027 618 0 c692 0 677 1 747 -70 24 -24 248 -402 600 -1012 l562 -973 496 -3 c274 -1 497 2 497 6 0 5 -300 528 -666 1163 -367 635 -673 1170 -681 1189 -10 22 -14 57 -11 100 l4 65 642 1112 c353 612 642 1115 642 1118 0 3 -224 5 -497 5 l-498 0 -520 -902 c-286 -496 -532 -918 -547 -938 -15 -22 -49 -49 -79 -64 l-53 -26 -628 0 -628 0 0 2365 0 2365 -435 0 -435 0 0 -3780z"/>
      <!--i-->
      <path d="M24680 6720 l0 -920 430 0 430 0 0 920 0 920 -430 0 -430 0 0 -920z"/>
      <path d="M24680 2460 l0 -2380 430 0 430 0 0 2380 0 2380 -430 0 -430 0 0 -2380z"/>
      <!--L-->
      <path d="M29720 3860 l0 -3780 2085 0 2085 0 0 385 0 385 -1655 0 -1655 0 0 3395 0 3395 -430 0 -430 0 0 -3780z"/>
      <!--a-->
      <path d="M35985 5010 c-38 -10 -88 -26 -109 -35 -69 -29 -1648 -945 -1705 -988 -152 -117 -251 -302 -272 -512 -6 -64 -9 -442 -6 -1025 3 -825 5 -932 20 -987 47 -176 157 -335 297 -431 51 -34 1564 -908 1639 -947 173 -87 419 -94 600 -16 36 15 305 166 596 335 l530 306 3 -315 2 -315 430 0 430 0 -2 1738 -3 1737 -27 80 c-49 144 -150 284 -267 369 -47 34 -1564 912 -1659 960 -131 66 -347 86 -497 46z m865 -1254 c333 -192 619 -359 635 -371 17 -12 44 -47 60 -76 l30 -54 0 -730 0 -730 -22 -46 c-13 -25 -35 -57 -50 -71 -29 -27 -1166 -687 -1242 -721 -33 -14 -60 -18 -110 -15 l-66 4 -605 348 c-645 371 -682 396 -708 483 -9 30 -12 226 -12 754 l0 714 24 50 c13 28 36 62 52 76 28 26 1156 682 1239 721 29 14 57 18 105 16 l65 -3 605 -349z"/>
      <!--b-->
      <path d="M39113 4583 c2 -2850 4 -3062 20 -3120 39 -145 121 -280 226 -374 44 -40 268 -174 868 -520 444 -257 827 -476 849 -488 61 -30 173 -59 261 -66 90 -8 227 12 314 45 66 26 1670 951 1673 965 2 15 -836 496 -856 491 -10 -2 -229 -126 -487 -275 -258 -149 -486 -278 -507 -287 -26 -11 -59 -15 -104 -12 l-65 4 -605 348 c-645 371 -682 396 -708 483 -9 30 -12 226 -12 754 l0 714 24 50 c13 28 36 62 52 76 30 28 1167 688 1243 722 33 14 59 18 105 15 61 -4 75 -11 666 -353 333 -191 619 -359 636 -372 17 -12 44 -47 60 -75 l29 -53 5 -589 5 -590 420 -243 c231 -133 424 -243 428 -243 4 0 6 442 5 983 l-3 982 -31 88 c-45 124 -87 190 -184 287 l-85 85 -810 467 c-446 257 -835 478 -865 492 -94 44 -186 59 -323 53 -194 -7 -196 -9 -821 -369 l-551 -318 -3 1650 -2 1650 -435 0 -435 0 3 -3057z"/>
      <!--.-->
      <path d="M43910 570 l0 -490 490 0 490 0 0 490 0 490 -490 0 -490 0 0 -490z"/>
    </g>
  </g>
</svg>
